<svg id="Santander" xmlns="http://www.w3.org/2000/svg" viewBox="0 0 43.8 41.5"><defs><style>.cls-1{fill:#fff;}</style></defs><title>santander_icon_white</title><path class="cls-1" d="M31.5,19.5a9.38,9.38,0,0,0-1.3-4.3L23.4,3.3A10.21,10.21,0,0,1,22.3.4L22,.9a9.49,9.49,0,0,0,0,9.5l5.5,9.5a9.49,9.49,0,0,1,0,9.5l-.3.5A10.21,10.21,0,0,0,26.1,27l-5-8.7-3.2-5.6a10.21,10.21,0,0,1-1.1-2.9l-.3.5a9.49,9.49,0,0,0,0,9.5h0L22,29.3a9.49,9.49,0,0,1,0,9.5l-.3.5a10.21,10.21,0,0,0-1.1-2.9L13.7,24.5a10.56,10.56,0,0,1-1.3-5.2C5.1,21.2,0,25.3,0,30c0,6.6,9.8,11.9,21.9,11.9S43.8,36.6,43.8,30C43.9,25.5,38.9,21.4,31.5,19.5Z" transform="translate(0 -0.4)"/></svg>