<svg width="14" height="25" viewBox="0 0 14 25" fill="none" xmlns="http://www.w3.org/2000/svg">
<path fill-rule="evenodd" clip-rule="evenodd" d="M0 0H14V17.7092C14 17.9776 13.8921 18.2348 13.7005 18.4228L7.70051 24.3124C7.31154 24.6942 6.68846 24.6942 6.29949 24.3124L0.299492 18.4228C0.107923 18.2348 0 17.9776 0 17.7092V0Z" fill="#696977"/>
<path d="M4.75292 9.09316C4.87408 9.2117 4.87408 9.40246 4.75292 9.51964L2.55798 11.6425C1.50137 12.6644 2.13252 13.9547 2.91019 14.7068C3.12292 14.9126 3.36523 15.0693 3.60332 15.1892C3.9189 15.3472 4.21898 14.9507 3.9668 14.7068C3.6146 14.3662 3.6146 14.0256 4.31901 13.3443L6.51395 11.2214L8.91176 8.90241C9.0625 8.75525 8.97797 8.48819 8.76524 8.47593C8.76383 8.47593 8.76242 8.47593 8.76101 8.47593L4.39085 8.0004C4.10627 7.98678 3.95412 8.3206 4.15558 8.51544L4.75292 9.09316Z" fill="white"/>
<path d="M9.24709 16.474C9.12452 16.3568 9.12452 16.1647 9.24709 16.0475L11.442 13.9247C12.4986 12.9028 11.8675 11.6124 11.0898 10.8603C10.8771 10.6546 10.6362 10.4979 10.3967 10.378C10.0811 10.2199 9.78103 10.6164 10.0332 10.8603C10.3854 11.2009 10.3854 11.5416 9.681 12.2229L7.48747 14.3443L5.08825 16.6634C4.93751 16.8105 5.02204 17.0776 5.23477 17.0898C5.23618 17.0898 5.23759 17.0898 5.239 17.0898L9.60774 17.564C9.89233 17.5776 10.0445 17.2438 9.84302 17.049L9.24709 16.474Z" fill="white"/>
</svg>
